<svg id="Layer_1" data-name="Layer 1" xmlns="http://www.w3.org/2000/svg" viewBox="0 0 312 240"><defs><style>.cls-1{fill:blue;}</style></defs><title>Artboard 1</title><path class="cls-1" d="M8.65,23V14.56H46.18V23H32V68.39H22.8V23Z"/><path class="cls-1" d="M74.78,46.86A9.43,9.43,0,0,0,73.2,41a5.87,5.87,0,0,0-5-2,7.62,7.62,0,0,0-5.69,2.19,7.84,7.84,0,0,0-2.15,5.73V68.39H52v-60H60.4V38.32A11.56,11.56,0,0,1,71,32q5.92,0,9,3.5T83.16,45.7V68.39H74.78Z"/><path class="cls-1" d="M99.54,52.62c.3,3.23,1.35,5.66,3.15,7.27a9.7,9.7,0,0,0,6.76,2.42,11.71,11.71,0,0,0,6.12-1.5,11.51,11.51,0,0,0,4-4.11l7.23,2.92a19.22,19.22,0,0,1-17.76,9.54,18.5,18.5,0,0,1-9.53-2.39,16.42,16.42,0,0,1-6.31-6.57A19.88,19.88,0,0,1,91,50.7c0-.66,0-1.3.08-1.92s.13-1.23.23-1.85a17.27,17.27,0,0,1,5.8-10.61q4.74-4.07,12.34-4.07,8.24,0,13,4.84t4.73,13.23c0,.31,0,.66,0,1.07s-.06.82-.11,1.23Zm.15-5.76h18.45a10.2,10.2,0,0,0-2.61-6.08,8.19,8.19,0,0,0-6.15-2.23,9.86,9.86,0,0,0-6.46,2.2A9.1,9.1,0,0,0,99.69,46.86Z"/><path class="cls-1" d="M8,79.92V76.08H152.82v3.84Z"/><path class="cls-1" d="M23.11,120.1v20.37H14V86.65h16.6a23.43,23.43,0,0,1,10.19,2.07A15.55,15.55,0,0,1,50,103.41a15.58,15.58,0,0,1-3.19,9.92A17.08,17.08,0,0,1,38,119.1l15.22,21.37h-11L28.65,120.1Zm0-7.46h7.15a11.31,11.31,0,0,0,7.53-2.39,9.28,9.28,0,0,0,0-13.38,11.36,11.36,0,0,0-7.53-2.38H23.11Z"/><path class="cls-1" d="M58.78,91a4.8,4.8,0,0,1,1.54-3.61A5.16,5.16,0,0,1,64,86a5.23,5.23,0,0,1,3.77,1.46,5,5,0,0,1,0,7.23A5.27,5.27,0,0,1,64,96.11a5.2,5.2,0,0,1-3.69-1.46A4.82,4.82,0,0,1,58.78,91Zm1.16,14.07h8.15v35.37H59.94Z"/><path class="cls-1" d="M85.08,122.79a11.76,11.76,0,0,0,1.46,5.88,10.49,10.49,0,0,0,4,4,11.18,11.18,0,0,0,5.58,1.42,14.31,14.31,0,0,0,7-1.73,11,11,0,0,0,4.54-4.27v9.15a11.94,11.94,0,0,1-5,3,22,22,0,0,1-7,1,20.2,20.2,0,0,1-9.8-2.35A17.54,17.54,0,0,1,79,132.4a19.79,19.79,0,0,1,0-19.22,17.56,17.56,0,0,1,6.85-6.5,20.2,20.2,0,0,1,9.8-2.35,20.41,20.41,0,0,1,7,1.12,13.67,13.67,0,0,1,5,2.88v9.15a10.93,10.93,0,0,0-4.61-4.27,14.49,14.49,0,0,0-6.92-1.73,10.79,10.79,0,0,0-9.54,5.46A11.54,11.54,0,0,0,85.08,122.79Z"/><path class="cls-1" d="M139.52,118.94a9.47,9.47,0,0,0-1.58-5.88,5.87,5.87,0,0,0-5-2,7.62,7.62,0,0,0-5.69,2.19,7.84,7.84,0,0,0-2.15,5.73v21.53h-8.38v-60h8.38v29.91a11.54,11.54,0,0,1,10.61-6.31q5.92,0,9,3.5t3.11,10.19v22.68h-8.38Z"/><path class="cls-1" d="M192.8,126.63l-6.15,13.84h-10.3l26.37-56.82,26.37,56.82h-10.3l-6.15-13.84Zm2.62-7.69H210l-7.3-17.07Z"/><path class="cls-1" d="M253.31,114a12.37,12.37,0,0,0-2.15-1.42,5.71,5.71,0,0,0-2.54-.5,4.81,4.81,0,0,0-4.46,2.31,11.87,11.87,0,0,0-1.38,6.15v19.91h-8.23V105.1h8.23v4.31a12,12,0,0,1,3.69-3.73,8.16,8.16,0,0,1,4.38-1.35,10.55,10.55,0,0,1,3.62.62,7.09,7.09,0,0,1,2.92,2Z"/><path class="cls-1" d="M264,92.8h8.23v12.3h5.92v7.31h-5.92v28.06H264V112.41h-5.92V105.1H264Z"/><path class="cls-1" d="M8,152v-3.84H301.6V152Z"/><path class="cls-1" d="M17.88,194.41a26.2,26.2,0,0,0,5.77,8.15,11.35,11.35,0,0,0,7.92,2.92q4.07,0,6.11-1.92a8,8,0,0,0,.31-10.3,13.65,13.65,0,0,0-4.46-3.2q-2.73-1.26-5.81-2.42-2-.76-4.42-2a21.58,21.58,0,0,1-4.57-3,14.85,14.85,0,0,1-3.54-4.5,13.42,13.42,0,0,1-1.38-6.27A12.56,12.56,0,0,1,16,164.42a14.53,14.53,0,0,1,6-4.88,20.74,20.74,0,0,1,8.65-1.73,19.23,19.23,0,0,1,8.54,1.77A18.59,18.59,0,0,1,45.18,164a18.88,18.88,0,0,1,3.38,5.42l-7.07,4.38a20.9,20.9,0,0,0-4.12-5.53A8.8,8.8,0,0,0,31,166a8.66,8.66,0,0,0-5.65,1.73,5.69,5.69,0,0,0-2.12,4.65A5.16,5.16,0,0,0,25,176.26a15.9,15.9,0,0,0,4.58,2.85c1.89.82,3.92,1.64,6.07,2.46A32.61,32.61,0,0,1,42,184.68a17,17,0,0,1,5.2,5.15,14.34,14.34,0,0,1,2.07,8q0,7.38-4.69,11.65t-13.3,4.27a20,20,0,0,1-12.34-4.08A23.6,23.6,0,0,1,11,199Z"/><path class="cls-1" d="M95.23,194.87a19.88,19.88,0,0,1-2.38,10.07,16.46,16.46,0,0,1-6.31,6.35A17.2,17.2,0,0,1,78,213.48a13.94,13.94,0,0,1-7.08-1.77,13.53,13.53,0,0,1-5-5.08v22.84H57.56V177.19h8.38v5.92a13.53,13.53,0,0,1,5-5.08A13.94,13.94,0,0,1,78,176.26a17.1,17.1,0,0,1,8.53,2.2,16.43,16.43,0,0,1,6.31,6.34A19.9,19.9,0,0,1,95.23,194.87Zm-8.61,0a11.6,11.6,0,0,0-1.46-6,10,10,0,0,0-3.88-3.76,11,11,0,0,0-5.35-1.31,9.59,9.59,0,0,0-4.69,1.27,10.13,10.13,0,0,0-3.8,3.73,13,13,0,0,0,0,12.14,10.06,10.06,0,0,0,3.8,3.73,9.59,9.59,0,0,0,4.69,1.27,11.11,11.11,0,0,0,5.35-1.3,10.1,10.1,0,0,0,3.88-3.77A11.6,11.6,0,0,0,86.62,194.87Z"/><path class="cls-1" d="M106.53,186.57l-3.38-6a40.75,40.75,0,0,1,6.11-2.85,23.75,23.75,0,0,1,8.42-1.38q6.54,0,10.65,2.85a9.31,9.31,0,0,1,4.12,8.15v25.22H124.3v-5.08a10,10,0,0,1-4.77,4.34,16.94,16.94,0,0,1-7.23,1.5,13.89,13.89,0,0,1-8.88-2.76c-2.33-1.85-3.5-4.51-3.5-8a10.23,10.23,0,0,1,4.12-8.65q4.11-3.12,11-3.11a17.62,17.62,0,0,1,5.27.73,19.52,19.52,0,0,1,4,1.65v-4.92a4.31,4.31,0,0,0-2-3.81,8.86,8.86,0,0,0-5-1.34,15.69,15.69,0,0,0-6.61,1.3A36.56,36.56,0,0,0,106.53,186.57Zm1.77,15.53a4.11,4.11,0,0,0,1.89,3.69,8.3,8.3,0,0,0,4.65,1.23,11.55,11.55,0,0,0,6.76-1.88q2.7-1.89,2.7-6.58v-.69a17.36,17.36,0,0,0-8-1.77q-4,0-6,1.62A5.32,5.32,0,0,0,108.3,202.1Z"/><path class="cls-1" d="M147.67,194.87a11.74,11.74,0,0,0,1.46,5.88,10.36,10.36,0,0,0,4,4,11,11,0,0,0,5.57,1.42,14.22,14.22,0,0,0,7-1.73,10.94,10.94,0,0,0,4.54-4.26v9.15a12.12,12.12,0,0,1-5,3,22,22,0,0,1-7,1,20.31,20.31,0,0,1-9.8-2.34,17.56,17.56,0,0,1-6.85-6.5,19.72,19.72,0,0,1,0-19.22,17.63,17.63,0,0,1,6.85-6.5,20.31,20.31,0,0,1,9.8-2.34,20.66,20.66,0,0,1,7,1.11,13.92,13.92,0,0,1,5,2.89v9.15a10.78,10.78,0,0,0-4.62-4.27,14.35,14.35,0,0,0-6.92-1.73,10.87,10.87,0,0,0-5.57,1.46,10.71,10.71,0,0,0-4,4A11.53,11.53,0,0,0,147.67,194.87Z"/><path class="cls-1" d="M185.19,196.79q.47,4.85,3.15,7.27a9.77,9.77,0,0,0,6.77,2.42,11.65,11.65,0,0,0,6.11-1.5,11.53,11.53,0,0,0,4-4.11l7.23,2.92a19.19,19.19,0,0,1-17.76,9.53,18.56,18.56,0,0,1-9.54-2.38,16.33,16.33,0,0,1-6.3-6.57,19.88,19.88,0,0,1-2.23-9.5c0-.67,0-1.31.07-1.92s.13-1.23.23-1.85a17.28,17.28,0,0,1,5.81-10.61q4.72-4.06,12.34-4.07,8.22,0,13,4.84t4.72,13.23c0,.3,0,.66,0,1.07s-.07.82-.12,1.23Zm.16-5.76H203.8a10.21,10.21,0,0,0-2.62-6.08,8.16,8.16,0,0,0-6.15-2.23,9.93,9.93,0,0,0-6.46,2.19A9.11,9.11,0,0,0,185.35,191Z"/><path class="cls-1" d="M8,224.09v-3.85H215.41v3.85Z"/></svg>